<svg width="23" height="30" viewBox="0 0 23 30" fill="none" xmlns="http://www.w3.org/2000/svg">
<path d="M19.4848 16.7625C18.4805 18.7537 17.1197 20.7375 15.7282 22.5188C14.4082 24.198 12.9967 25.8066 11.5 27.3375C10.0032 25.8066 8.59181 24.1981 7.27183 22.5188C5.88033 20.7375 4.5195 18.7537 3.51517 16.7625C2.49933 14.7506 1.91667 12.8663 1.91667 11.25C1.91667 8.7636 2.92634 6.37903 4.72356 4.62087C6.52078 2.86272 8.95834 1.875 11.5 1.875C14.0417 1.875 16.4792 2.86272 18.2764 4.62087C20.0737 6.37903 21.0833 8.7636 21.0833 11.25C21.0833 12.8663 20.4988 14.7506 19.4848 16.7625ZM11.5 30C11.5 30 23 19.3388 23 11.25C23 8.26631 21.7884 5.40483 19.6317 3.29505C17.4751 1.18526 14.55 0 11.5 0C8.45001 0 5.52494 1.18526 3.36827 3.29505C1.2116 5.40483 4.54484e-08 8.26631 0 11.25C0 19.3388 11.5 30 11.5 30Z" fill="#B0B0B0"/>
<path d="M11.5 15C10.4833 15 9.50831 14.6049 8.78942 13.9017C8.07053 13.1984 7.66667 12.2446 7.66667 11.25C7.66667 10.2554 8.07053 9.30161 8.78942 8.59835C9.50831 7.89509 10.4833 7.5 11.5 7.5C12.5167 7.5 13.4917 7.89509 14.2106 8.59835C14.9295 9.30161 15.3333 10.2554 15.3333 11.25C15.3333 12.2446 14.9295 13.1984 14.2106 13.9017C13.4917 14.6049 12.5167 15 11.5 15ZM11.5 16.875C13.025 16.875 14.4875 16.2824 15.5659 15.2275C16.6442 14.1726 17.25 12.7418 17.25 11.25C17.25 9.75816 16.6442 8.32742 15.5659 7.27252C14.4875 6.21763 13.025 5.625 11.5 5.625C9.97501 5.625 8.51247 6.21763 7.43414 7.27252C6.3558 8.32742 5.75 9.75816 5.75 11.25C5.75 12.7418 6.3558 14.1726 7.43414 15.2275C8.51247 16.2824 9.97501 16.875 11.5 16.875Z" fill="#B0B0B0"/>
</svg>
