<svg width="31" height="30" viewBox="0 0 31 30" fill="none" xmlns="http://www.w3.org/2000/svg">
<path d="M19.7857 6.42857C19.7857 8.13353 19.1084 9.76867 17.9028 10.9743C16.6972 12.1798 15.0621 12.8571 13.3571 12.8571C11.6522 12.8571 10.017 12.1798 8.81146 10.9743C7.60587 9.76867 6.92857 8.13353 6.92857 6.42857C6.92857 4.72361 7.60587 3.08848 8.81146 1.88289C10.017 0.677294 11.6522 0 13.3571 0C15.0621 0 16.6972 0.677294 17.9028 1.88289C19.1084 3.08848 19.7857 4.72361 19.7857 6.42857ZM13.3571 10.7143C14.4938 10.7143 15.5839 10.2628 16.3876 9.45903C17.1913 8.6553 17.6429 7.56521 17.6429 6.42857C17.6429 5.29193 17.1913 4.20184 16.3876 3.39811C15.5839 2.59439 14.4938 2.14286 13.3571 2.14286C12.2205 2.14286 11.1304 2.59439 10.3267 3.39811C9.52296 4.20184 9.07143 5.29193 9.07143 6.42857C9.07143 7.56521 9.52296 8.6553 10.3267 9.45903C11.1304 10.2628 12.2205 10.7143 13.3571 10.7143ZM13.9057 25.7143C13.6599 25.0184 13.4952 24.2965 13.415 23.5629H2.64286C2.645 23.0357 2.97286 21.45 4.42571 19.9971C5.82286 18.6 8.45214 17.1429 13.3571 17.1429C13.9143 17.1429 14.4436 17.1621 14.9429 17.1964C15.4271 16.4657 16.0057 15.8036 16.6657 15.2293C15.665 15.0814 14.5657 15 13.3571 15C2.64286 15 0.5 21.4286 0.5 23.5714C0.5 25.7143 2.64286 25.7143 2.64286 25.7143H13.9057ZM21.6843 15.9857C22.07 14.6721 23.93 14.6721 24.3179 15.9857L24.41 16.3029C24.4676 16.4996 24.5685 16.6809 24.7053 16.8335C24.8422 16.9861 25.0115 17.106 25.2008 17.1846C25.3902 17.2631 25.5947 17.2982 25.7994 17.2873C26.004 17.2763 26.2037 17.2197 26.3836 17.1214L26.675 16.9629C27.8771 16.3071 29.1929 17.6229 28.5393 18.825L28.3786 19.1164C28.2807 19.2962 28.2244 19.4957 28.2137 19.7001C28.203 19.9045 28.2381 20.1087 28.3166 20.2978C28.3951 20.4869 28.515 20.6559 28.6673 20.7927C28.8197 20.9294 29.0007 21.0302 29.1971 21.0879L29.5164 21.1843C30.8279 21.57 30.8279 23.43 29.5164 23.8179L29.195 23.91C28.9986 23.968 28.8178 24.0693 28.6657 24.2064C28.5136 24.3434 28.3941 24.5128 28.316 24.7021C28.2379 24.8914 28.2032 25.0957 28.2144 25.3002C28.2256 25.5046 28.2824 25.704 28.3807 25.8836L28.5393 26.175C29.1929 27.3771 27.8771 28.6929 26.675 28.0393L26.3836 27.8786C26.2038 27.7807 26.0043 27.7244 25.7999 27.7137C25.5955 27.703 25.3913 27.7381 25.2022 27.8166C25.0131 27.8951 24.8441 28.015 24.7073 28.1673C24.5706 28.3197 24.4698 28.5007 24.4121 28.6971L24.3157 29.0164C23.93 30.3279 22.07 30.3279 21.6821 29.0164L21.59 28.695C21.532 28.4986 21.4307 28.3178 21.2936 28.1657C21.1566 28.0136 20.9872 27.8941 20.7979 27.816C20.6086 27.7379 20.4043 27.7032 20.1998 27.7144C19.9954 27.7256 19.796 27.7824 19.6164 27.8807L19.325 28.0393C18.1229 28.6929 16.8071 27.3771 17.4607 26.175L17.6214 25.8836C17.7193 25.7038 17.7756 25.5043 17.7863 25.2999C17.797 25.0955 17.7619 24.8913 17.6834 24.7022C17.6049 24.5131 17.485 24.3441 17.3327 24.2073C17.1803 24.0706 16.9993 23.9698 16.8029 23.9121L16.4857 23.8157C15.1721 23.43 15.1721 21.57 16.4857 21.1821L16.8029 21.09C16.9996 21.0324 17.1809 20.9315 17.3335 20.7947C17.4861 20.6578 17.606 20.4885 17.6846 20.2992C17.7631 20.1098 17.7982 19.9053 17.7873 19.7006C17.7763 19.4959 17.7197 19.2963 17.6214 19.1164L17.4629 18.825C16.8071 17.6229 18.1229 16.3071 19.325 16.9607L19.6164 17.1214C19.7962 17.2193 19.9957 17.2756 20.2001 17.2863C20.4045 17.297 20.6087 17.2619 20.7978 17.1834C20.9869 17.1049 21.1559 16.985 21.2927 16.8327C21.4294 16.6803 21.5302 16.4993 21.5879 16.3029L21.6843 15.9857ZM26.2143 22.5C26.2143 22.0779 26.1311 21.6599 25.9696 21.2699C25.8081 20.88 25.5713 20.5256 25.2728 20.2272C24.9744 19.9287 24.62 19.6919 24.2301 19.5304C23.8401 19.3689 23.4221 19.2857 23 19.2857C22.5779 19.2857 22.1599 19.3689 21.7699 19.5304C21.38 19.6919 21.0256 19.9287 20.7272 20.2272C20.4287 20.5256 20.1919 20.88 20.0304 21.2699C19.8689 21.6599 19.7857 22.0779 19.7857 22.5C19.7857 23.3525 20.1244 24.17 20.7272 24.7728C21.33 25.3756 22.1475 25.7143 23 25.7143C23.8525 25.7143 24.67 25.3756 25.2728 24.7728C25.8756 24.17 26.2143 23.3525 26.2143 22.5Z" fill="#B0B0B0"/>
</svg>
