<svg width="33" height="30" viewBox="0 0 33 30" fill="none" xmlns="http://www.w3.org/2000/svg">
<path d="M6.2292 28.7001C6.0732 29.588 6.94919 30.282 7.72118 29.886L16.501 25.3744L25.2789 29.886C26.0508 30.282 26.9268 29.588 26.7708 28.7021L25.1109 19.2428L32.1547 12.5313C32.8147 11.9034 32.4747 10.7555 31.5907 10.6315L21.7949 9.23958L17.427 0.586243C17.3438 0.410834 17.2125 0.262634 17.0484 0.15886C16.8843 0.0550867 16.6942 0 16.5 0C16.3059 0 16.1157 0.0550867 15.9516 0.15886C15.7875 0.262634 15.6562 0.410834 15.573 0.586243L11.2051 9.24158L1.40929 10.6335C0.527306 10.7575 0.185313 11.9054 0.843301 12.5333L7.88917 19.2448L6.2292 28.7041V28.7001ZM16.039 23.1665L8.66716 26.9542L10.0551 19.0408C10.0876 18.8587 10.0749 18.6713 10.0181 18.4952C9.96124 18.3191 9.86202 18.1597 9.72914 18.0309L3.91724 12.4913L12.0211 11.3394C12.1889 11.3141 12.3481 11.2485 12.485 11.1481C12.6218 11.0478 12.7324 10.9158 12.8071 10.7635L16.497 3.44802L20.1909 10.7635C20.2657 10.9158 20.3762 11.0478 20.5131 11.1481C20.65 11.2485 20.8091 11.3141 20.9769 11.3394L29.0808 12.4893L23.2689 18.0289C23.1357 18.1579 23.0363 18.3177 22.9794 18.4941C22.9226 18.6706 22.91 18.8584 22.9429 19.0408L24.3309 26.9542L16.959 23.1665C16.8165 23.093 16.6584 23.0547 16.498 23.0547C16.3376 23.0547 16.1816 23.093 16.039 23.1665Z" fill="#B0B0B0"/>
</svg>
