<svg width="41" height="30" viewBox="0 0 41 30" fill="none" xmlns="http://www.w3.org/2000/svg">
<path fill-rule="evenodd" clip-rule="evenodd" d="M11.7156 27.1408C11.7156 26.762 11.8699 26.3987 12.1445 26.1308C12.4191 25.8629 12.7915 25.7125 13.1798 25.7125H39.5358C39.9241 25.7125 40.2965 25.8629 40.5711 26.1308C40.8457 26.3987 41 26.762 41 27.1408C41 27.5196 40.8457 27.8829 40.5711 28.1508C40.2965 28.4186 39.9241 28.5691 39.5358 28.5691H13.1798C12.7915 28.5691 12.4191 28.4186 12.1445 28.1508C11.8699 27.8829 11.7156 27.5196 11.7156 27.1408ZM11.7156 15.7142C11.7156 15.3353 11.8699 14.972 12.1445 14.7042C12.4191 14.4363 12.7915 14.2858 13.1798 14.2858H39.5358C39.9241 14.2858 40.2965 14.4363 40.5711 14.7042C40.8457 14.972 41 15.3353 41 15.7142C41 16.093 40.8457 16.4563 40.5711 16.7241C40.2965 16.992 39.9241 17.1425 39.5358 17.1425H13.1798C12.7915 17.1425 12.4191 16.992 12.1445 16.7241C11.8699 16.4563 11.7156 16.093 11.7156 15.7142ZM11.7156 4.28754C11.7156 3.90872 11.8699 3.54542 12.1445 3.27756C12.4191 3.00969 12.7915 2.85921 13.1798 2.85921H39.5358C39.9241 2.85921 40.2965 3.00969 40.5711 3.27756C40.8457 3.54542 41 3.90872 41 4.28754C41 4.66635 40.8457 5.02965 40.5711 5.29752C40.2965 5.56538 39.9241 5.71587 39.5358 5.71587H13.1798C12.7915 5.71587 12.4191 5.56538 12.1445 5.29752C11.8699 5.02965 11.7156 4.66635 11.7156 4.28754ZM8.35962 0.419625C8.49597 0.552304 8.60416 0.709922 8.67797 0.88345C8.75179 1.05698 8.78978 1.24301 8.78978 1.43088C8.78978 1.61876 8.75179 1.80479 8.67797 1.97831C8.60416 2.15184 8.49597 2.30946 8.35962 2.44214L3.96696 6.72712C3.83094 6.86014 3.66936 6.96567 3.49148 7.03768C3.31359 7.10968 3.12288 7.14675 2.93029 7.14675C2.73769 7.14675 2.54699 7.10968 2.3691 7.03768C2.19121 6.96567 2.02963 6.86014 1.89362 6.72712L0.429402 5.29879C0.293265 5.16599 0.185275 5.00834 0.111598 4.83483C0.0379209 4.66131 2.0286e-09 4.47535 0 4.28754C-2.0286e-09 4.09973 0.0379209 3.91376 0.111598 3.74025C0.185275 3.56674 0.293265 3.40908 0.429402 3.27628C0.565539 3.14348 0.727157 3.03814 0.905029 2.96627C1.0829 2.8944 1.27354 2.85741 1.46607 2.85741C1.6586 2.85741 1.84924 2.8944 2.02711 2.96627C2.20498 3.03814 2.3666 3.14348 2.50274 3.27628L2.93029 3.69621L6.28628 0.419625C6.42229 0.28661 6.58387 0.181077 6.76176 0.109071C6.93965 0.0370647 7.13035 0 7.32295 0C7.51554 0 7.70625 0.0370647 7.88414 0.109071C8.06202 0.181077 8.2236 0.28661 8.35962 0.419625ZM8.35962 11.8463C8.49597 11.9789 8.60416 12.1365 8.67797 12.3101C8.75179 12.4836 8.78978 12.6696 8.78978 12.8575C8.78978 13.0454 8.75179 13.2314 8.67797 13.4049C8.60416 13.5785 8.49597 13.7361 8.35962 13.8688L3.96696 18.1537C3.83094 18.2868 3.66936 18.3923 3.49148 18.4643C3.31359 18.5363 3.12288 18.5734 2.93029 18.5734C2.73769 18.5734 2.54699 18.5363 2.3691 18.4643C2.19121 18.3923 2.02963 18.2868 1.89362 18.1537L0.429402 16.7254C0.154461 16.4572 0 16.0935 0 15.7142C0 15.3349 0.154461 14.9711 0.429402 14.7029C0.704343 14.4347 1.07724 14.284 1.46607 14.284C1.8549 14.284 2.2278 14.4347 2.50274 14.7029L2.93029 15.1228L6.28628 11.8463C6.42229 11.7132 6.58387 11.6077 6.76176 11.5357C6.93965 11.4637 7.13035 11.4266 7.32295 11.4266C7.51554 11.4266 7.70625 11.4637 7.88414 11.5357C8.06202 11.6077 8.2236 11.7132 8.35962 11.8463ZM8.35962 23.2729C8.49597 23.4056 8.60416 23.5632 8.67797 23.7367C8.75179 23.9102 8.78978 24.0963 8.78978 24.2841C8.78978 24.472 8.75179 24.658 8.67797 24.8316C8.60416 25.0051 8.49597 25.1627 8.35962 25.2954L3.96696 29.5804C3.83094 29.7134 3.66936 29.8189 3.49148 29.8909C3.31359 29.9629 3.12288 30 2.93029 30C2.73769 30 2.54699 29.9629 2.3691 29.8909C2.19121 29.8189 2.02963 29.7134 1.89362 29.5804L0.429402 28.152C0.154461 27.8838 0 27.5201 0 27.1408C0 26.7615 0.154461 26.3977 0.429402 26.1295C0.704343 25.8613 1.07724 25.7107 1.46607 25.7107C1.8549 25.7107 2.2278 25.8613 2.50274 26.1295L2.93029 26.5495L6.28628 23.2729C6.42229 23.1399 6.58387 23.0343 6.76176 22.9623C6.93965 22.8903 7.13035 22.8533 7.32295 22.8533C7.51554 22.8533 7.70625 22.8903 7.88414 22.9623C8.06202 23.0343 8.2236 23.1399 8.35962 23.2729Z" fill="#3C3C3C"/>
</svg>
